<svg width="1200" height="820" viewBox="0 0 1200 820" xmlns="http://www.w3.org/2000/svg">
  <rect width="1200" height="820" fill="#f8fafc"/>
  <text x="72" y="92" font-size="46" font-weight="700" font-family="Arial, PingFang SC, Microsoft YaHei, sans-serif" fill="#0f172a">业务代码里直接调模型 SDK，会怎样失控</text>
  <rect x="80" y="160" width="250" height="110" rx="18" fill="#e0f2fe" stroke="#7dd3fc"/>
  <rect x="80" y="325" width="250" height="110" rx="18" fill="#e0f2fe" stroke="#7dd3fc"/>
  <rect x="80" y="490" width="250" height="110" rx="18" fill="#e0f2fe" stroke="#7dd3fc"/>
  <text x="130" y="225" font-size="34" font-family="Arial, PingFang SC, Microsoft YaHei, sans-serif" fill="#0f172a">订单助手</text>
  <text x="130" y="390" font-size="34" font-family="Arial, PingFang SC, Microsoft YaHei, sans-serif" fill="#0f172a">知识库问答</text>
  <text x="130" y="555" font-size="34" font-family="Arial, PingFang SC, Microsoft YaHei, sans-serif" fill="#0f172a">智能工单</text>
  <rect x="470" y="185" width="260" height="400" rx="22" fill="#ffffff" stroke="#cbd5e1" stroke-width="3"/>
  <text x="525" y="240" font-size="34" font-weight="700" font-family="Arial, PingFang SC, Microsoft YaHei, sans-serif" fill="#111827">模型 SDK 调用</text>
  <text x="525" y="300" font-size="26" font-family="Arial, PingFang SC, Microsoft YaHei, sans-serif" fill="#475569">- 请求参数拼装</text>
  <text x="525" y="350" font-size="26" font-family="Arial, PingFang SC, Microsoft YaHei, sans-serif" fill="#475569">- API Key 读取</text>
  <text x="525" y="400" font-size="26" font-family="Arial, PingFang SC, Microsoft YaHei, sans-serif" fill="#475569">- 超时与重试</text>
  <text x="525" y="450" font-size="26" font-family="Arial, PingFang SC, Microsoft YaHei, sans-serif" fill="#475569">- 流式协议处理</text>
  <text x="525" y="500" font-size="26" font-family="Arial, PingFang SC, Microsoft YaHei, sans-serif" fill="#475569">- Token 成本统计</text>
  <text x="525" y="550" font-size="26" font-family="Arial, PingFang SC, Microsoft YaHei, sans-serif" fill="#475569">- 错误码适配</text>
  <rect x="860" y="160" width="240" height="90" rx="18" fill="#dbeafe"/>
  <rect x="860" y="315" width="240" height="90" rx="18" fill="#dcfce7"/>
  <rect x="860" y="470" width="240" height="90" rx="18" fill="#fee2e2"/>
  <text x="930" y="215" font-size="30" font-family="Arial, PingFang SC, Microsoft YaHei, sans-serif" fill="#1d4ed8">OpenAI</text>
  <text x="950" y="370" font-size="30" font-family="Arial, PingFang SC, Microsoft YaHei, sans-serif" fill="#15803d">Qwen</text>
  <text x="915" y="525" font-size="30" font-family="Arial, PingFang SC, Microsoft YaHei, sans-serif" fill="#b91c1c">DeepSeek</text>
  <path d="M330 215 C390 215, 410 220, 470 250" stroke="#64748b" stroke-width="5" fill="none"/>
  <path d="M330 380 C390 380, 410 380, 470 385" stroke="#64748b" stroke-width="5" fill="none"/>
  <path d="M330 545 C390 545, 410 540, 470 520" stroke="#64748b" stroke-width="5" fill="none"/>
  <path d="M730 230 C790 210, 800 205, 860 205" stroke="#64748b" stroke-width="5" fill="none"/>
  <path d="M730 380 C790 360, 800 360, 860 360" stroke="#64748b" stroke-width="5" fill="none"/>
  <path d="M730 530 C790 515, 800 515, 860 515" stroke="#64748b" stroke-width="5" fill="none"/>
  <text x="80" y="700" font-size="30" font-family="Arial, PingFang SC, Microsoft YaHei, sans-serif" fill="#b91c1c">问题不是“能不能调通”，而是“每个业务都各调各的，系统会越来越难管”。</text>
</svg>
