<svg width="1200" height="760" viewBox="0 0 1200 760" xmlns="http://www.w3.org/2000/svg">
  <rect width="1200" height="760" fill="#f8fafc"/>
  <text x="70" y="88" font-size="46" font-weight="700" font-family="Arial, PingFang SC, Microsoft YaHei, sans-serif" fill="#0f172a">一次模型请求，在真实系统里的完整链路</text>
  <rect x="70" y="270" width="170" height="90" rx="18" fill="#dbeafe"/>
  <rect x="290" y="270" width="170" height="90" rx="18" fill="#e0f2fe"/>
  <rect x="510" y="270" width="170" height="90" rx="18" fill="#dcfce7"/>
  <rect x="730" y="270" width="170" height="90" rx="18" fill="#fef3c7"/>
  <rect x="950" y="270" width="170" height="90" rx="18" fill="#fee2e2"/>
  <text x="98" y="325" font-size="30" font-family="Arial, PingFang SC, Microsoft YaHei, sans-serif" fill="#1d4ed8">HTTP Handler</text>
  <text x="305" y="325" font-size="30" font-family="Arial, PingFang SC, Microsoft YaHei, sans-serif" fill="#0369a1">App Service</text>
  <text x="555" y="325" font-size="30" font-family="Arial, PingFang SC, Microsoft YaHei, sans-serif" fill="#15803d">AI Gateway</text>
  <text x="755" y="325" font-size="30" font-family="Arial, PingFang SC, Microsoft YaHei, sans-serif" fill="#a16207">Provider</text>
  <text x="1020" y="325" font-size="30" font-family="Arial, PingFang SC, Microsoft YaHei, sans-serif" fill="#b91c1c">Vendor</text>
  <path d="M240 315 L290 315" stroke="#334155" stroke-width="6"/>
  <path d="M460 315 L510 315" stroke="#334155" stroke-width="6"/>
  <path d="M680 315 L730 315" stroke="#334155" stroke-width="6"/>
  <path d="M900 315 L950 315" stroke="#334155" stroke-width="6"/>
  <text x="86" y="180" font-size="28" font-family="Arial, PingFang SC, Microsoft YaHei, sans-serif" fill="#475569">参数校验</text>
  <text x="86" y="215" font-size="28" font-family="Arial, PingFang SC, Microsoft YaHei, sans-serif" fill="#475569">用户身份</text>
  <text x="285" y="180" font-size="28" font-family="Arial, PingFang SC, Microsoft YaHei, sans-serif" fill="#475569">场景选择</text>
  <text x="285" y="215" font-size="28" font-family="Arial, PingFang SC, Microsoft YaHei, sans-serif" fill="#475569">消息组织</text>
  <text x="500" y="180" font-size="28" font-family="Arial, PingFang SC, Microsoft YaHei, sans-serif" fill="#475569">路由、重试</text>
  <text x="500" y="215" font-size="28" font-family="Arial, PingFang SC, Microsoft YaHei, sans-serif" fill="#475569">日志、限流</text>
  <text x="735" y="180" font-size="28" font-family="Arial, PingFang SC, Microsoft YaHei, sans-serif" fill="#475569">协议转换</text>
  <text x="735" y="215" font-size="28" font-family="Arial, PingFang SC, Microsoft YaHei, sans-serif" fill="#475569">错误适配</text>
  <text x="940" y="180" font-size="28" font-family="Arial, PingFang SC, Microsoft YaHei, sans-serif" fill="#475569">真实模型调用</text>
  <text x="940" y="215" font-size="28" font-family="Arial, PingFang SC, Microsoft YaHei, sans-serif" fill="#475569">流式 / 非流式输出</text>
  <text x="70" y="560" font-size="30" font-family="Arial, PingFang SC, Microsoft YaHei, sans-serif" fill="#111827">关键点：</text>
  <text x="70" y="610" font-size="28" font-family="Arial, PingFang SC, Microsoft YaHei, sans-serif" fill="#475569">业务层不要直连厂商；统一入口才能持续叠加流式、路由、审计、成本治理。</text>
</svg>
